<svg xmlns="http://www.w3.org/2000/svg" xmlns:xlink="http://www.w3.org/1999/xlink" width="500" zoomAndPan="magnify" viewBox="0 0 375 374.999991" height="500" preserveAspectRatio="xMidYMid meet" version="1.0"><defs><g/><clipPath id="3e2b1c9f1a"><rect x="0" width="347" y="0" height="375"/></clipPath><clipPath id="3d6091269e"><rect x="0" width="332" y="0" height="375"/></clipPath><clipPath id="da36e87df0"><path d="M 36 203 L 88 203 L 88 249 L 36 249 Z M 36 203 " clip-rule="nonzero"/></clipPath><clipPath id="07027b852d"><path d="M 23.296875 225.328125 L 49.636719 182.214844 L 87.304688 205.226562 L 60.96875 248.339844 Z M 23.296875 225.328125 " clip-rule="nonzero"/></clipPath><clipPath id="94a6ee406b"><path d="M 36.445312 203.804688 L 87.269531 205.289062 L 60.96875 248.339844 Z M 36.445312 203.804688 " clip-rule="nonzero"/></clipPath><clipPath id="14acce15b4"><path d="M 0.238281 0.761719 L 51.359375 0.761719 L 51.359375 45.398438 L 0.238281 45.398438 Z M 0.238281 0.761719 " clip-rule="nonzero"/></clipPath><clipPath id="e153262c40"><path d="M -12.703125 22.328125 L 13.636719 -20.785156 L 51.304688 2.226562 L 24.96875 45.339844 Z M -12.703125 22.328125 " clip-rule="nonzero"/></clipPath><clipPath id="d95b605c02"><path d="M 0.445312 0.804688 L 51.269531 2.289062 L 24.96875 45.339844 Z M 0.445312 0.804688 " clip-rule="nonzero"/></clipPath><clipPath id="ff4317e47a"><rect x="0" width="52" y="0" height="46"/></clipPath><clipPath id="ec3f3d3647"><path d="M 267 126 L 319 126 L 319 170 L 267 170 Z M 267 126 " clip-rule="nonzero"/></clipPath><clipPath id="f0a8364d41"><path d="M 279.957031 191.4375 L 255.265625 147.585938 L 293.582031 126.011719 L 318.273438 169.867188 Z M 279.957031 191.4375 " clip-rule="nonzero"/></clipPath><clipPath id="d8eb73f00b"><path d="M 267.628906 169.542969 L 293.621094 126.074219 L 318.273438 169.867188 Z M 267.628906 169.542969 " clip-rule="nonzero"/></clipPath><clipPath id="fae32d9fc8"><path d="M 0.601562 0 L 51.480469 0 L 51.480469 43.921875 L 0.601562 43.921875 Z M 0.601562 0 " clip-rule="nonzero"/></clipPath><clipPath id="c6eef64ec1"><path d="M 12.957031 65.4375 L -11.734375 21.585938 L 26.582031 0.0117188 L 51.273438 43.867188 Z M 12.957031 65.4375 " clip-rule="nonzero"/></clipPath><clipPath id="9f9e1aa692"><path d="M 0.628906 43.542969 L 26.621094 0.0742188 L 51.273438 43.867188 Z M 0.628906 43.542969 " clip-rule="nonzero"/></clipPath><clipPath id="a03cc529da"><rect x="0" width="52" y="0" height="44"/></clipPath></defs><g transform="matrix(1, 0, 0, 1, 28, 0)"><g clip-path="url(#3e2b1c9f1a)"><g fill="#fdc921" fill-opacity="1"><g transform="translate(66.000852, 204.683592)"><g><path d="M 27.8125 -26.90625 L 62.125 -83.796875 L 135.234375 -81.609375 L 98.96875 -144.921875 L 133.671875 -202.46875 L 191.625 -93.078125 L 151.8125 -27.046875 Z M 27.8125 -26.90625 "/></g></g></g></g></g><g transform="matrix(1, 0, 0, 1, 0, 0)"><g clip-path="url(#3d6091269e)"><g fill="#fdc921" fill-opacity="1"><g transform="translate(265.722504, 168.082393)"><g><path d="M -27.8125 26.90625 L -62.125 83.796875 L -135.234375 81.609375 L -98.96875 144.921875 L -133.671875 202.46875 L -191.625 93.078125 L -151.8125 27.046875 Z M -27.8125 26.90625 "/></g></g></g></g></g><g clip-path="url(#da36e87df0)"><g clip-path="url(#07027b852d)"><g clip-path="url(#94a6ee406b)"><g transform="matrix(1, 0, 0, 1, 36, 203)"><g clip-path="url(#ff4317e47a)"><g clip-path="url(#14acce15b4)"><g clip-path="url(#e153262c40)"><g clip-path="url(#d95b605c02)"><path fill="#fdc921" d="M -12.703125 22.328125 L 13.636719 -20.785156 L 51.304688 2.226562 L 24.96875 45.339844 Z M -12.703125 22.328125 " fill-opacity="1" fill-rule="nonzero"/></g></g></g></g></g></g></g></g><g clip-path="url(#ec3f3d3647)"><g clip-path="url(#f0a8364d41)"><g clip-path="url(#d8eb73f00b)"><g transform="matrix(1, 0, 0, 1, 267, 126)"><g clip-path="url(#a03cc529da)"><g clip-path="url(#fae32d9fc8)"><g clip-path="url(#c6eef64ec1)"><g clip-path="url(#9f9e1aa692)"><path fill="#fdc921" d="M 12.957031 65.4375 L -11.734375 21.585938 L 26.582031 0.0117188 L 51.273438 43.867188 Z M 12.957031 65.4375 " fill-opacity="1" fill-rule="nonzero"/></g></g></g></g></g></g></g></g></svg>